<?xml version="1.0" encoding="UTF-8" standalone="no"?>
<svg
   xmlns:dc="http://purl.org/dc/elements/1.1/"
   xmlns:cc="http://creativecommons.org/ns#"
   xmlns:rdf="http://www.w3.org/1999/02/22-rdf-syntax-ns#"
   xmlns:svg="http://www.w3.org/2000/svg"
   xmlns="http://www.w3.org/2000/svg"
   xmlns:xlink="http://www.w3.org/1999/xlink"
   id="svg5611"
   version="1.1"
   viewBox="0 0 26.458333 26.458334"
   height="100"
   width="100">
  <defs
     id="defs5605">
    <linearGradient
       gradientUnits="userSpaceOnUse"
       y2="206.93597"
       x2="156.54053"
       y1="191.95638"
       x1="147.08325"
       id="linearGradient2121"
       xlink:href="#linearGradient2095" />
    <linearGradient
       id="linearGradient2095">
      <stop
         id="stop2091"
         offset="0"
         style="stop-color:#00838f;stop-opacity:1;" />
      <stop
         id="stop2093"
         offset="1"
         style="stop-color:#868e96;stop-opacity:1" />
    </linearGradient>
    <linearGradient
       gradientUnits="userSpaceOnUse"
       y2="543.7099"
       x2="344.88815"
       y1="404.39691"
       x1="283.54272"
       id="linearGradient2105"
       xlink:href="#linearGradient2095" />
    <linearGradient
       gradientUnits="userSpaceOnUse"
       y2="185.22404"
       x2="59.767063"
       y1="209.46069"
       x1="53.339886"
       id="linearGradient2097"
       xlink:href="#linearGradient2095" />
    <linearGradient
       gradientUnits="userSpaceOnUse"
       y2="377.04324"
       x2="496.98151"
       y1="563.42999"
       x1="399.35895"
       id="linearGradient2113"
       xlink:href="#linearGradient2095" />
    <linearGradient
       gradientUnits="userSpaceOnUse"
       y2="439.47754"
       x2="174.11523"
       y1="369.47754"
       x1="225.34766"
       id="linearGradient2147"
       xlink:href="#linearGradient2145" />
    <linearGradient
       id="linearGradient2145">
      <stop
         id="stop2141"
         offset="0"
         style="stop-color:#ffffff;stop-opacity:1;" />
      <stop
         id="stop2143"
         offset="1"
         style="stop-color:#ffffff;stop-opacity:0;" />
    </linearGradient>
    <linearGradient
       gradientUnits="userSpaceOnUse"
       y2="535.05469"
       x2="410.25"
       y1="368.55469"
       x1="494.92383"
       id="linearGradient2139"
       xlink:href="#linearGradient2145" />
  </defs>
  <metadata
     id="metadata5608">
    <rdf:RDF>
      <cc:Work
         rdf:about="">
        <dc:format>image/svg+xml</dc:format>
        <dc:type
           rdf:resource="http://purl.org/dc/dcmitype/StillImage" />
        <dc:title></dc:title>
      </cc:Work>
    </rdf:RDF>
  </metadata>
  <g
     transform="translate(0,-270.54165)"
     id="layer1">
    <g
       id="g2158"
       transform="matrix(0.16511711,-0.18884663,0.18884663,0.16511711,-41.92843,269.24127)">
      <path
         id="path2072"
         d="m 148.20852,185.18716 a 19.54256,39.386311 0 0 0 -0.47128,0.0475 h -18.387 a 19.54256,39.386311 0 0 1 17.4377,24.59953 h 19.51457 a 19.54256,39.386311 0 0 0 -17.13694,-24.57886 v -0.0207 h -0.29145 a 19.54256,39.386311 0 0 0 -0.6656,-0.0476 z m -20.48092,0.0475 v 0.0491 a 19.54256,39.386311 0 0 1 0.48576,-0.0491 z"
         style="opacity:1;vector-effect:none;fill:url(#linearGradient2121);fill-opacity:1;stroke:none;stroke-width:0.60237992;stroke-linecap:butt;stroke-linejoin:miter;stroke-miterlimit:4;stroke-dasharray:none;stroke-dashoffset:0;stroke-opacity:1;paint-order:normal" />
      <path
         style="opacity:1;vector-effect:none;fill:url(#linearGradient2105);fill-opacity:1;stroke:none;stroke-width:2.27671146;stroke-linecap:butt;stroke-linejoin:miter;stroke-miterlimit:4;stroke-dasharray:none;stroke-dashoffset:0;stroke-opacity:1;paint-order:normal"
         d="m 286.52344,377.40039 a 73.861644,148.86165 0 0 0 -1.78125,0.17969 h -69.49414 a 73.861644,148.86165 0 0 1 65.90625,92.97461 73.861644,148.86165 0 0 0 64.76953,92.89648 v 0.0781 h 1.10156 a 73.861644,148.86165 0 0 0 2.51563,0.17968 73.861644,148.86165 0 0 0 1.78125,-0.17968 h 69.49414 A 73.861644,148.86165 0 0 1 354.91016,470.55469 73.861644,148.86165 0 0 0 290.14062,377.6582 v -0.0781 h -1.10156 a 73.861644,148.86165 0 0 0 -2.51562,-0.17969 z m -77.40821,0.17969 v 0.18554 a 73.861644,148.86165 0 0 1 1.83594,-0.18554 z m 217.83399,185.76367 a 73.861644,148.86165 0 0 1 -1.83594,0.18555 h 1.83594 z"
         transform="matrix(0.26458333,0,0,0.26458333,0,85.3333)"
         id="path2049" />
      <path
         style="opacity:1;vector-effect:none;fill:#dedede;fill-opacity:1;stroke:none;stroke-width:0.60237992;stroke-linecap:butt;stroke-linejoin:miter;stroke-miterlimit:4;stroke-dasharray:none;stroke-dashoffset:0;stroke-opacity:1;paint-order:normal"
         d="M 75.809326,185.18715 A 19.54256,39.386311 0 0 0 57.70087,209.83423 23.217065,46.791953 0 0 1 75.809326,192.25649 23.217065,46.791953 0 0 1 93.898661,209.73914 19.54256,39.386311 0 0 0 75.809326,185.18715 Z"
         id="ellipse2036" />
      <path
         style="opacity:1;vector-effect:none;fill:url(#linearGradient2097);fill-opacity:1;stroke:none;stroke-width:0.60237992;stroke-linecap:butt;stroke-linejoin:miter;stroke-miterlimit:4;stroke-dasharray:none;stroke-dashoffset:0;stroke-opacity:1;paint-order:normal"
         d="m 56.285452,185.18715 a 19.54256,39.386311 0 0 0 -0.665591,0.0475 h -0.291457 v 0.0207 A 19.54256,39.386311 0 0 0 38.191985,209.83422 H 57.706037 A 19.54256,39.386311 0 0 1 75.143732,185.23469 H 56.756741 a 19.54256,39.386311 0 0 0 -0.471289,-0.0475 z m 19.995163,0.0475 a 19.54256,39.386311 0 0 1 0.485756,0.0491 v -0.0491 z"
         id="ellipse2041" />
      <path
         id="path2066"
         d="M 92.482724,234.4813 A 19.54256,39.386311 0 0 0 110.59118,209.83422 23.217065,46.791953 0 0 1 92.482724,227.41196 23.217065,46.791953 0 0 1 74.393389,209.92931 19.54256,39.386311 0 0 0 92.482724,234.4813 Z"
         style="opacity:1;vector-effect:none;fill:#dedede;fill-opacity:1;stroke:none;stroke-width:0.60237992;stroke-linecap:butt;stroke-linejoin:miter;stroke-miterlimit:4;stroke-dasharray:none;stroke-dashoffset:0;stroke-opacity:1;paint-order:normal" />
      <path
         style="opacity:1;vector-effect:none;fill:url(#linearGradient2113);fill-opacity:1;stroke:none;stroke-width:2.27671146;stroke-linecap:butt;stroke-linejoin:miter;stroke-miterlimit:4;stroke-dasharray:none;stroke-dashoffset:0;stroke-opacity:1;paint-order:normal"
         d="m 486.36719,377.40039 a 73.861644,148.86165 0 0 0 -2.51563,0.17969 H 482.75 v 0.0781 a 73.861644,148.86165 0 0 0 -64.76758,92.89649 h -0.0195 a 73.861644,148.86165 0 0 1 -65.90625,92.97461 h 69.49414 a 73.861644,148.86165 0 0 0 1.78125,0.17968 73.861644,148.86165 0 0 0 2.51563,-0.17968 h 1.10156 v -0.0781 a 73.861644,148.86165 0 0 0 64.76758,-92.89648 h 0.0195 a 73.861644,148.86165 0 0 1 65.90625,-92.97461 h -69.49414 a 73.861644,148.86165 0 0 0 -1.78125,-0.17969 z m 75.57226,0.17969 a 73.861644,148.86165 0 0 1 1.83594,0.18554 v -0.18554 z M 345.92383,563.34375 v 0.18555 h 1.83594 a 73.861644,148.86165 0 0 1 -1.83594,-0.18555 z"
         transform="matrix(0.26458333,0,0,0.26458333,0,85.3333)"
         id="path2068" />
      <path
         id="path2074"
         d="m 148.20852,185.18716 a 19.54256,39.386311 0 0 0 -18.10845,24.64707 23.217065,46.791953 0 0 1 18.10845,-17.57774 23.217065,46.791953 0 0 1 18.08934,17.48266 19.54256,39.386311 0 0 0 -18.08934,-24.55199 z"
         style="opacity:1;vector-effect:none;fill:#dedede;fill-opacity:1;stroke:none;stroke-width:0.60237992;stroke-linecap:butt;stroke-linejoin:miter;stroke-miterlimit:4;stroke-dasharray:none;stroke-dashoffset:0;stroke-opacity:1;paint-order:normal" />
      <path
         style="opacity:1;vector-effect:none;fill:url(#linearGradient2147);fill-opacity:1;stroke:none;stroke-width:2.27671146;stroke-linecap:butt;stroke-linejoin:miter;stroke-miterlimit:4;stroke-dasharray:none;stroke-dashoffset:0;stroke-opacity:1;paint-order:normal"
         d="m 212.73242,377.40039 a 73.861644,148.86165 0 0 0 -2.51562,0.17969 h -1.10157 v 0.0781 a 73.861644,148.86165 0 0 0 -64.76757,92.89649 h 35 a 73.861644,148.86165 0 0 1 64.76757,-92.89649 v -0.0781 h -29.60156 a 73.861644,148.86165 0 0 0 -1.78125,-0.17969 z"
         transform="matrix(0.26458333,0,0,0.26458333,0,85.3333)"
         id="path2123" />
      <path
         style="opacity:1;vector-effect:none;fill:url(#linearGradient2139);fill-opacity:1;stroke:none;stroke-width:2.27671146;stroke-linecap:butt;stroke-linejoin:miter;stroke-miterlimit:4;stroke-dasharray:none;stroke-dashoffset:0;stroke-opacity:1;paint-order:normal"
         d="m 486.36719,377.40039 a 73.861643,148.86165 0 0 0 -2.51563,0.17969 H 482.75 v 0.0781 a 73.861643,148.86165 0 0 0 -64.76758,92.89649 h -0.0195 a 73.861643,148.86165 0 0 1 -65.90625,92.97461 h 27.36719 v -0.18555 a 73.861644,148.86165 0 0 0 1.83594,0.18555 h 4.29687 a 73.861644,148.86165 0 0 0 65.90625,-92.97461 h 0.0195 A 73.861644,148.86165 0 0 1 516.25,377.6582 v -0.0781 h -28.10156 a 73.861643,148.86165 0 0 0 -1.78125,-0.17969 z M 345.92383,563.34375 v 0.18555 h 1.83594 a 73.861643,148.86165 0 0 1 -1.83594,-0.18555 z m 75.62695,0.18555 a 73.861643,148.86165 0 0 0 1.78125,0.17968 73.861643,148.86165 0 0 0 2.51563,-0.17968 z"
         transform="matrix(0.26458333,0,0,0.26458333,0,85.3333)"
         id="path2128" />
    </g>
  </g>
</svg>
