<?xml version="1.0" encoding="UTF-8" standalone="no"?>
<!-- Created with Inkscape (http://www.inkscape.org/) -->

<svg
   xmlns:dc="http://purl.org/dc/elements/1.1/"
   xmlns:cc="http://creativecommons.org/ns#"
   xmlns:rdf="http://www.w3.org/1999/02/22-rdf-syntax-ns#"
   xmlns:svg="http://www.w3.org/2000/svg"
   xmlns="http://www.w3.org/2000/svg"
   xmlns:xlink="http://www.w3.org/1999/xlink"
   xmlns:sodipodi="http://sodipodi.sourceforge.net/DTD/sodipodi-0.dtd"
   xmlns:inkscape="http://www.inkscape.org/namespaces/inkscape"
   width="1200"
   height="800"
   viewBox="0 0 317.5 211.66667"
   version="1.1"
   id="svg1487"
   inkscape:version="0.92.4 (unknown)"
   sodipodi:docname="logo_workspace.svg">
  <defs
     id="defs1481">
    <linearGradient
       inkscape:collect="always"
       id="linearGradient2145">
      <stop
         style="stop-color:#ffffff;stop-opacity:1;"
         offset="0"
         id="stop2141" />
      <stop
         style="stop-color:#ffffff;stop-opacity:0;"
         offset="1"
         id="stop2143" />
    </linearGradient>
    <linearGradient
       inkscape:collect="always"
       id="linearGradient2137">
      <stop
         style="stop-color:#ffffff;stop-opacity:1;"
         offset="0"
         id="stop2133" />
      <stop
         style="stop-color:#ffffff;stop-opacity:0;"
         offset="1"
         id="stop2135" />
    </linearGradient>
    <linearGradient
       inkscape:collect="always"
       id="linearGradient2095">
      <stop
         style="stop-color:#00838f;stop-opacity:1;"
         offset="0"
         id="stop2091" />
      <stop
         style="stop-color:#868e96;stop-opacity:1"
         offset="1"
         id="stop2093" />
    </linearGradient>
    <linearGradient
       inkscape:collect="always"
       xlink:href="#linearGradient2095"
       id="linearGradient2097"
       x1="53.339886"
       y1="209.46069"
       x2="59.767063"
       y2="185.22404"
       gradientUnits="userSpaceOnUse" />
    <linearGradient
       inkscape:collect="always"
       xlink:href="#linearGradient2095"
       id="linearGradient2105"
       x1="283.54272"
       y1="404.39691"
       x2="344.88815"
       y2="543.7099"
       gradientUnits="userSpaceOnUse" />
    <linearGradient
       inkscape:collect="always"
       xlink:href="#linearGradient2095"
       id="linearGradient2113"
       x1="399.35895"
       y1="563.42999"
       x2="496.98151"
       y2="377.04324"
       gradientUnits="userSpaceOnUse" />
    <linearGradient
       inkscape:collect="always"
       xlink:href="#linearGradient2095"
       id="linearGradient2121"
       x1="147.08325"
       y1="191.95638"
       x2="156.54053"
       y2="206.93597"
       gradientUnits="userSpaceOnUse" />
    <linearGradient
       inkscape:collect="always"
       xlink:href="#linearGradient2137"
       id="linearGradient2139"
       x1="494.92383"
       y1="368.55469"
       x2="410.25"
       y2="535.05469"
       gradientUnits="userSpaceOnUse" />
    <linearGradient
       inkscape:collect="always"
       xlink:href="#linearGradient2145"
       id="linearGradient2147"
       x1="225.34766"
       y1="369.47754"
       x2="174.11523"
       y2="439.47754"
       gradientUnits="userSpaceOnUse" />
  </defs>
  <sodipodi:namedview
     id="base"
     pagecolor="#ffffff"
     bordercolor="#666666"
     borderopacity="1.0"
     inkscape:pageopacity="0.0"
     inkscape:pageshadow="2"
     inkscape:zoom="1"
     inkscape:cx="417.31755"
     inkscape:cy="340.06345"
     inkscape:document-units="mm"
     inkscape:current-layer="layer1"
     showgrid="false"
     units="px"
     inkscape:object-paths="false"
     inkscape:snap-others="false"
     inkscape:object-nodes="false"
     inkscape:window-width="2048"
     inkscape:window-height="1068"
     inkscape:window-x="0"
     inkscape:window-y="28"
     inkscape:window-maximized="1" />
  <metadata
     id="metadata1484">
    <rdf:RDF>
      <cc:Work
         rdf:about="">
        <dc:format>image/svg+xml</dc:format>
        <dc:type
           rdf:resource="http://purl.org/dc/dcmitype/StillImage" />
        <dc:title></dc:title>
      </cc:Work>
    </rdf:RDF>
  </metadata>
  <g
     inkscape:label="Layer 1"
     inkscape:groupmode="layer"
     id="layer1"
     transform="translate(0,-85.3333)">
    <g
       id="g2158">
      <path
         style="opacity:1;vector-effect:none;fill:url(#linearGradient2121);fill-opacity:1;stroke:none;stroke-width:0.60237992;stroke-linecap:butt;stroke-linejoin:miter;stroke-miterlimit:4;stroke-dasharray:none;stroke-dashoffset:0;stroke-opacity:1;paint-order:normal"
         d="m 148.20852,185.18716 a 19.54256,39.386311 0 0 0 -0.47128,0.0475 h -18.387 a 19.54256,39.386311 0 0 1 17.4377,24.59953 h 19.51457 a 19.54256,39.386311 0 0 0 -17.13694,-24.57886 v -0.0207 h -0.29145 a 19.54256,39.386311 0 0 0 -0.6656,-0.0476 z m -20.48092,0.0475 v 0.0491 a 19.54256,39.386311 0 0 1 0.48576,-0.0491 z"
         id="path2072"
         inkscape:connector-curvature="0" />
      <path
         id="path2049"
         transform="matrix(0.26458333,0,0,0.26458333,0,85.3333)"
         d="M 286.52344 377.40039 A 73.861644 148.86165 0 0 0 284.74219 377.58008 L 215.24805 377.58008 A 73.861644 148.86165 0 0 1 281.1543 470.55469 A 73.861644 148.86165 0 0 0 345.92383 563.45117 L 345.92383 563.5293 L 347.02539 563.5293 A 73.861644 148.86165 0 0 0 349.54102 563.70898 A 73.861644 148.86165 0 0 0 351.32227 563.5293 L 420.81641 563.5293 A 73.861644 148.86165 0 0 1 354.91016 470.55469 A 73.861644 148.86165 0 0 0 290.14062 377.6582 L 290.14062 377.58008 L 289.03906 377.58008 A 73.861644 148.86165 0 0 0 286.52344 377.40039 z M 209.11523 377.58008 L 209.11523 377.76562 A 73.861644 148.86165 0 0 1 210.95117 377.58008 L 209.11523 377.58008 z M 426.94922 563.34375 A 73.861644 148.86165 0 0 1 425.11328 563.5293 L 426.94922 563.5293 L 426.94922 563.34375 z "
         style="opacity:1;vector-effect:none;fill:url(#linearGradient2105);fill-opacity:1;stroke:none;stroke-width:2.27671146;stroke-linecap:butt;stroke-linejoin:miter;stroke-miterlimit:4;stroke-dasharray:none;stroke-dashoffset:0;stroke-opacity:1;paint-order:normal" />
      <path
         id="ellipse2036"
         d="M 75.809326,185.18715 A 19.54256,39.386311 0 0 0 57.70087,209.83423 23.217065,46.791953 0 0 1 75.809326,192.25649 23.217065,46.791953 0 0 1 93.898661,209.73914 19.54256,39.386311 0 0 0 75.809326,185.18715 Z"
         style="opacity:1;vector-effect:none;fill:#dedede;fill-opacity:1;stroke:none;stroke-width:0.60237992;stroke-linecap:butt;stroke-linejoin:miter;stroke-miterlimit:4;stroke-dasharray:none;stroke-dashoffset:0;stroke-opacity:1;paint-order:normal"
         inkscape:connector-curvature="0" />
      <path
         id="ellipse2041"
         d="m 56.285452,185.18715 a 19.54256,39.386311 0 0 0 -0.665591,0.0475 h -0.291457 v 0.0207 A 19.54256,39.386311 0 0 0 38.191985,209.83422 H 57.706037 A 19.54256,39.386311 0 0 1 75.143732,185.23469 H 56.756741 a 19.54256,39.386311 0 0 0 -0.471289,-0.0475 z m 19.995163,0.0475 a 19.54256,39.386311 0 0 1 0.485756,0.0491 v -0.0491 z"
         style="opacity:1;vector-effect:none;fill:url(#linearGradient2097);fill-opacity:1;stroke:none;stroke-width:0.60237992;stroke-linecap:butt;stroke-linejoin:miter;stroke-miterlimit:4;stroke-dasharray:none;stroke-dashoffset:0;stroke-opacity:1;paint-order:normal"
         inkscape:connector-curvature="0" />
      <path
         style="opacity:1;vector-effect:none;fill:#dedede;fill-opacity:1;stroke:none;stroke-width:0.60237992;stroke-linecap:butt;stroke-linejoin:miter;stroke-miterlimit:4;stroke-dasharray:none;stroke-dashoffset:0;stroke-opacity:1;paint-order:normal"
         d="M 92.482724,234.4813 A 19.54256,39.386311 0 0 0 110.59118,209.83422 23.217065,46.791953 0 0 1 92.482724,227.41196 23.217065,46.791953 0 0 1 74.393389,209.92931 19.54256,39.386311 0 0 0 92.482724,234.4813 Z"
         id="path2066"
         inkscape:connector-curvature="0" />
      <path
         id="path2068"
         transform="matrix(0.26458333,0,0,0.26458333,0,85.3333)"
         d="M 486.36719 377.40039 A 73.861644 148.86165 0 0 0 483.85156 377.58008 L 482.75 377.58008 L 482.75 377.6582 A 73.861644 148.86165 0 0 0 417.98242 470.55469 L 417.96289 470.55469 A 73.861644 148.86165 0 0 1 352.05664 563.5293 L 421.55078 563.5293 A 73.861644 148.86165 0 0 0 423.33203 563.70898 A 73.861644 148.86165 0 0 0 425.84766 563.5293 L 426.94922 563.5293 L 426.94922 563.45117 A 73.861644 148.86165 0 0 0 491.7168 470.55469 L 491.73633 470.55469 A 73.861644 148.86165 0 0 1 557.64258 377.58008 L 488.14844 377.58008 A 73.861644 148.86165 0 0 0 486.36719 377.40039 z M 561.93945 377.58008 A 73.861644 148.86165 0 0 1 563.77539 377.76562 L 563.77539 377.58008 L 561.93945 377.58008 z M 345.92383 563.34375 L 345.92383 563.5293 L 347.75977 563.5293 A 73.861644 148.86165 0 0 1 345.92383 563.34375 z "
         style="opacity:1;vector-effect:none;fill:url(#linearGradient2113);fill-opacity:1;stroke:none;stroke-width:2.27671146;stroke-linecap:butt;stroke-linejoin:miter;stroke-miterlimit:4;stroke-dasharray:none;stroke-dashoffset:0;stroke-opacity:1;paint-order:normal" />
      <path
         style="opacity:1;vector-effect:none;fill:#dedede;fill-opacity:1;stroke:none;stroke-width:0.60237992;stroke-linecap:butt;stroke-linejoin:miter;stroke-miterlimit:4;stroke-dasharray:none;stroke-dashoffset:0;stroke-opacity:1;paint-order:normal"
         d="m 148.20852,185.18716 a 19.54256,39.386311 0 0 0 -18.10845,24.64707 23.217065,46.791953 0 0 1 18.10845,-17.57774 23.217065,46.791953 0 0 1 18.08934,17.48266 19.54256,39.386311 0 0 0 -18.08934,-24.55199 z"
         id="path2074"
         inkscape:connector-curvature="0" />
      <path
         id="path2123"
         transform="matrix(0.26458333,0,0,0.26458333,0,85.3333)"
         d="M 212.73242 377.40039 A 73.861644 148.86165 0 0 0 210.2168 377.58008 L 209.11523 377.58008 L 209.11523 377.6582 A 73.861644 148.86165 0 0 0 144.34766 470.55469 L 179.34766 470.55469 A 73.861644 148.86165 0 0 1 244.11523 377.6582 L 244.11523 377.58008 L 214.51367 377.58008 A 73.861644 148.86165 0 0 0 212.73242 377.40039 z "
         style="opacity:1;vector-effect:none;fill:url(#linearGradient2147);fill-opacity:1;stroke:none;stroke-width:2.27671146;stroke-linecap:butt;stroke-linejoin:miter;stroke-miterlimit:4;stroke-dasharray:none;stroke-dashoffset:0;stroke-opacity:1;paint-order:normal" />
      <path
         id="path2128"
         transform="matrix(0.26458333,0,0,0.26458333,0,85.3333)"
         d="M 486.36719 377.40039 A 73.861643 148.86165 0 0 0 483.85156 377.58008 L 482.75 377.58008 L 482.75 377.6582 A 73.861643 148.86165 0 0 0 417.98242 470.55469 L 417.96289 470.55469 A 73.861643 148.86165 0 0 1 352.05664 563.5293 L 379.42383 563.5293 L 379.42383 563.34375 A 73.861644 148.86165 0 0 0 381.25977 563.5293 L 385.55664 563.5293 A 73.861644 148.86165 0 0 0 451.46289 470.55469 L 451.48242 470.55469 A 73.861644 148.86165 0 0 1 516.25 377.6582 L 516.25 377.58008 L 488.14844 377.58008 A 73.861643 148.86165 0 0 0 486.36719 377.40039 z M 345.92383 563.34375 L 345.92383 563.5293 L 347.75977 563.5293 A 73.861643 148.86165 0 0 1 345.92383 563.34375 z M 421.55078 563.5293 A 73.861643 148.86165 0 0 0 423.33203 563.70898 A 73.861643 148.86165 0 0 0 425.84766 563.5293 L 421.55078 563.5293 z "
         style="opacity:1;vector-effect:none;fill:url(#linearGradient2139);fill-opacity:1;stroke:none;stroke-width:2.27671146;stroke-linecap:butt;stroke-linejoin:miter;stroke-miterlimit:4;stroke-dasharray:none;stroke-dashoffset:0;stroke-opacity:1;paint-order:normal" />
    </g>
  </g>
</svg>
